<svg xmlns="http://www.w3.org/2000/svg" version="1.1" xmlns:xlink="http://www.w3.org/1999/xlink" xmlns:svgjs="http://svgjs.dev/svgjs" width="100%" height="100%" viewBox="0 0 1000 600"><rect width="1000" height="600" x="0" y="0" fill="#358597"/><g><rect width="333.3333333333333" height="333.3333333333333" rx="13.333333333333334" ry="13.333333333333334" y="115.53629257843099" fill="#f4a896" transform="matrix(1.3395622396067826,0,0,1.3395622396067828,0,-78.02843087519737)" x="93.3140869140625"/><path d="M261.303750765278 207.2029644373281L261.303750765278 207.2029644373281L313.4022912336319 326.75892624766027Q317.1431671691879 334.8489506286189 319.54584358308165 339.2285126995138Q321.9485199969754 343.60807477040873 324.4728509128384 345.3720650489636Q326.99718182870146 347.1056417020261 330.2818533818726 347.7747414628574L330.2818533818726 347.7747414628574Q331.13343489565773 350.6336222591359 331.37674389959636 352.58009429064475Q331.5896392780426 354.5569799476459 331.5896392780426 357.20296536547824L331.5896392780426 357.20296536547824Q329.3998582425952 356.9596563615397 324.807400793254 356.86841548506266Q320.1845297184205 356.7467609830934 315.16628151218674 356.65552010661645Q310.1176196804607 356.5338656046471 306.62005274884325 356.5338656046471L306.62005274884325 356.5338656046471Q304.00448095650324 356.5338656046471 300.47650039939344 356.65552010661645Q296.978933467776 356.7467609830934 293.26847115771227 356.86841548506266Q289.5275952221562 356.9596563615397 286.5774735494006 357.081310863509Q283.62735187664504 357.20296536547824 281.86336159809014 357.20296536547824L281.86336159809014 357.20296536547824Q281.86336159809014 354.5569799476459 282.1979114785057 352.1543035337522Q282.5324613589213 349.75162711985854 283.4144564981988 347.7747414628574L283.4144564981988 347.7747414628574Q292.38647601843485 346.6798509451336 294.02881179502043 343.729729272378Q295.671147571606 340.7796075996224 291.2915855007111 330.6822839361703L291.2915855007111 330.6822839361703L260.8475463828931 259.5144002841282Q258.0190792121068 252.7321617993396 255.8292981766594 247.47060458916727Q253.6395171412119 242.23946100448725 250.56774096648704 234.11902299803631L250.56774096648704 234.11902299803631L251.66263148421075 234.11902299803631Q249.01664606637843 242.45235638293357 246.94851953290026 248.26135885196774Q244.88039299942213 254.0399476955096 242.90350734242097 259.301504905682L242.90350734242097 259.301504905682L217.9339208132216 324.3562498337666Q213.12856798543413 337.2516270425126 214.983799140466 342.17863437226936Q216.83903029549788 347.1056417020261 225.81104981573395 347.7747414628574L225.81104981573395 347.7747414628574Q226.69304495501137 349.75162711985854 227.02759483542695 352.1543035337522Q227.36214471584253 354.5569799476459 227.36214471584253 357.20296536547824L227.36214471584253 357.20296536547824Q224.92905467645647 356.9596563615397 221.43148774483905 356.86841548506266Q217.9339208132216 356.7467609830934 214.10180400118855 356.65552010661645Q210.26968718915552 356.5338656046471 206.5592248790918 356.5338656046471L206.5592248790918 356.5338656046471Q201.08477229047315 356.5338656046471 196.24900583719338 356.7467609830934Q191.44365300940592 356.9596563615397 188.37187683468102 357.20296536547824L188.37187683468102 357.20296536547824Q188.37187683468102 355.01318433003087 188.7064267150966 352.4888534141678Q189.0409765955122 349.96452249830475 189.8925581092973 347.9876368413036L189.8925581092973 347.9876368413036Q193.84632942329966 347.1056417020261 196.46190121563967 344.91586066657874Q199.107886633472 342.72607963113126 201.63221754933502 337.7990723013745Q204.12613483970574 332.87206497161776 207.4108063928769 324.3562498337666L207.4108063928769 324.3562498337666L252.7575220019345 208.05454595111323Q254.94730303738191 207.62875519422064 256.80253419241376 207.41585981577438Q258.65776534744566 207.2029644373281 261.303750765278 207.2029644373281ZM224.92905467645647 298.5046681652898L281.2246754627513 298.5046681652898L283.20156111975245 308.3586828248033Q268.51178000695916 308.3586828248033 251.75387236068775 308.5715782032496Q235.0263783399086 308.7844735816958 221.43148774483905 309.24067796408076L221.43148774483905 309.24067796408076L224.92905467645647 298.5046681652898Z " fill="#358597" transform="matrix(1.3395622396067826,0,0,1.3395622396067828,0,-78.02843087519737)"/><path d="M582.9126298546335 207.2029644373281L582.9126298546335 207.2029644373281L635.0111703229873 326.75892624766027Q638.7520462585435 334.8489506286189 641.1547226724372 339.2285126995138Q643.5573990863309 343.60807477040873 646.0817300021938 345.3720650489636Q648.606060918057 347.1056417020261 651.8907324712281 347.7747414628574L651.8907324712281 347.7747414628574Q652.7423139850132 350.6336222591359 652.9856229889517 352.58009429064475Q653.198518367398 354.5569799476459 653.198518367398 357.20296536547824L653.198518367398 357.20296536547824Q651.0087373319507 356.9596563615397 646.4162798826094 356.86841548506266Q641.7934088077759 356.7467609830934 636.7751606015422 356.65552010661645Q631.7264987698161 356.5338656046471 628.2289318381986 356.5338656046471L628.2289318381986 356.5338656046471Q625.6133600458586 356.5338656046471 622.0853794887489 356.65552010661645Q618.5878125571314 356.7467609830934 614.8773502470676 356.86841548506266Q611.1364743115116 356.9596563615397 608.186352638756 357.081310863509Q605.2362309660004 357.20296536547824 603.4722406874455 357.20296536547824L603.4722406874455 357.20296536547824Q603.4722406874455 354.5569799476459 603.8067905678611 352.1543035337522Q604.1413404482767 349.75162711985854 605.0233355875541 347.7747414628574L605.0233355875541 347.7747414628574Q613.9953551077904 346.6798509451336 615.6376908843758 343.729729272378Q617.2800266609615 340.7796075996224 612.9004645900666 330.6822839361703L612.9004645900666 330.6822839361703L582.4564254722486 259.5144002841282Q579.6279583014623 252.7321617993396 577.4381772660148 247.47060458916727Q575.2483962305673 242.23946100448725 572.1766200558425 234.11902299803631L572.1766200558425 234.11902299803631L573.2715105735663 234.11902299803631Q570.6255251557338 242.45235638293357 568.5573986222557 248.26135885196774Q566.4892720887776 254.0399476955096 564.5123864317763 259.301504905682L564.5123864317763 259.301504905682L539.542799902577 324.3562498337666Q534.7374470747895 337.2516270425126 536.5926782298214 342.17863437226936Q538.4479093848533 347.1056417020261 547.4199289050894 347.7747414628574L547.4199289050894 347.7747414628574Q548.3019240443668 349.75162711985854 548.6364739247824 352.1543035337522Q548.971023805198 354.5569799476459 548.971023805198 357.20296536547824L548.971023805198 357.20296536547824Q546.5379337658119 356.9596563615397 543.0403668341944 356.86841548506266Q539.542799902577 356.7467609830934 535.7106830905441 356.65552010661645Q531.878566278511 356.5338656046471 528.1681039684472 356.5338656046471L528.1681039684472 356.5338656046471Q522.6936513798287 356.5338656046471 517.8578849265489 356.7467609830934Q513.0525320987614 356.9596563615397 509.9807559240365 357.20296536547824L509.9807559240365 357.20296536547824Q509.9807559240365 355.01318433003087 510.31530580445207 352.4888534141678Q510.64985568486765 349.96452249830475 511.50143719865275 347.9876368413036L511.50143719865275 347.9876368413036Q515.4552085126551 347.1056417020261 518.0707803049951 344.91586066657874Q520.7167657228274 342.72607963113126 523.2410966386905 337.7990723013745Q525.7350139290611 332.87206497161776 529.0196854822323 324.3562498337666L529.0196854822323 324.3562498337666L574.3664010912898 208.05454595111323Q576.5561821267374 207.62875519422064 578.4114132817692 207.41585981577438Q580.266644436801 207.2029644373281 582.9126298546335 207.2029644373281ZM546.5379337658119 298.5046681652898L602.8335545521068 298.5046681652898L604.8104402091079 308.3586828248033Q590.1206590963146 308.3586828248033 573.3627514500431 308.5715782032496Q556.6352574292641 308.7844735816958 543.0403668341944 309.24067796408076L543.0403668341944 309.24067796408076L546.5379337658119 298.5046681652898Z " fill="#f4a896" transform="matrix(1.3395622396067826,0,0,1.3395622396067828,0,-78.02843087519737)"/></g></svg>